<?xml version="1.0" encoding="UTF-8"?><svg id="Layer_2" xmlns="http://www.w3.org/2000/svg" xmlns:xlink="http://www.w3.org/1999/xlink" viewBox="0 0 1013.37 1013.37"><defs><style>.cls-1{clip-path:url(#clippath);}.cls-2{fill:none;}.cls-3{fill:#f2f2f2;}</style><clipPath id="clippath"><rect class="cls-2" width="1013.37" height="1013.37"/></clipPath></defs><g id="Layer_1-2"><g class="cls-1"><rect class="cls-2" x="-494.92" y="-69.32" width="2048" height="1152"/><path class="cls-3" d="m315.82,567.11h-38.67l-48.75-48.75h-77.62v48.75h-28.45v-77.06h158v-15.47H122.47v-28.31h187v72.09h-42.4l48.75,48.75Z"/><path class="cls-3" d="m430.59,446.26l76.1,120.85h-31.63l-60.35-95.71-60.35,95.71h-31.63l76.24-120.85h31.63Z"/><path class="cls-3" d="m626.97,506.75l-37.57,30.8-36.05,29.56h-39.77l73.47-60.35h.14l-.14-.14-73.47-60.35h39.77l53.72,44.06,53.72-44.06h39.78l-59.25,48.61-14.23,11.74-.14.14Z"/><path class="cls-3" d="m707.49,567.11v-120.85h187v120.85h-28.31v-93.5h-130.37v93.5h-28.31Z"/><polygon class="cls-3" points="630.6 799.23 605.02 840.35 579.44 799.23 605.02 720.93 630.6 799.23"/><polygon class="cls-3" points="570.35 799.21 528.83 871.5 487.31 799.21 528.83 661.57 570.35 799.21"/><polygon class="cls-3" points="478.71 799.23 453.13 840.35 427.55 799.23 453.13 720.93 478.71 799.23"/></g></g></svg>